<svg xmlns="http://www.w3.org/2000/svg" version="1.1" viewBox="-5.0 -10.0 110.0 135.0">
 <path d="m43.5 28.352c-3.6484-1.2734-7.0742-3.1445-10.875-4.0547-5.5898-1.3281-10.973-1.0352-15.906 2.168-8.1484 5.2969-11.434 13.445-12.02 22.602-0.82422 12.914 2.9062 24.77 10.262 35.379 3.7031 5.3555 8.3438 9.7695 14.941 11.434 5.1875 1.3008 10.246 0.16797 15.207-1.2422 3.7734-1.0625 7.4219-1.1172 11.223-0.11328 4.125 1.0898 8.3594 1.6641 12.621 0.86719 6.1914-1.1602 10.891-4.7656 14.664-9.5625 7.1562-9.1133 10.988-19.555 11.727-31.102 0.51562-8.1914-1.7188-15.586-7.4922-21.512-7.3516-7.5742-16.312-8.9727-26.152-5.8555-2.207 0.69922-4.3906 1.3984-6.6797 1.7734-2.8516 0.47656-1.3008-1.8438-1.7617-2.8242-0.65625-1.4258 0.58594-1.2852 1.4688-1.3008 2.4609-0.042968 4.9336 0.054688 7.3789-0.14062 10.219-0.82422 17.137-6.1914 21.094-15.531 0.94922-2.2656 0.47656-3.2578-1.832-4.0938-3.3984-1.2305-6.9453-1.8047-10.539-1.6758-8.3594 0.32031-15.137 3.5938-19.57 10.973-0.29297 0.48828-0.43359 1.1172-1.1758 1.4688-1.707-3.5938-3.1328-7.2266-5.7305-10.176-1.7734-2-2.7969-2.1797-4.25-0.78125-2.3477 2.2773-2.7539 4.4453-0.79687 5.8984 4.7656 3.5625 6.5273 8.7227 7.9258 14.105 0.34766 1.3438 1.2305 3.1719 0.26562 3.9844-0.87891 0.73828-2.668-0.22656-3.9961-0.6875zm34.762-19.488c-2.9219 8.6797-12.09 13.082-24.742 11.883 1.6953-9.7422 12.668-15.027 24.742-11.883zm-21.875 24.938c3.1992-0.65625 6.2773-1.8438 9.4648-2.6016 12.355-2.9492 21.734 5.5898 23.859 15.922 1.9023 9.2266-0.34766 17.891-4.207 26.223-2.2773 4.8906-5.1719 9.3945-9.3086 12.973-4.5703 3.957-9.7969 5.8008-15.727 4.1641-7.2109-2.0117-14.203-1.5938-21.332 0.48828-7.6445 2.2227-13.543-1.1055-18.285-6.8203-6.207-7.4766-9.4336-16.258-10.859-25.805-1.0781-7.2539-0.75391-14.301 2.9219-20.828 3.0625-5.4375 7.4219-9.0859 14.02-9.168 3.0039-0.054687 5.7578 0.8125 8.4297 2.0273 6.6953 3.0508 13.617 4.9375 21.023 3.4258z"/>
<text x="0.0" y="117.5" font-size="5.0" font-weight="bold" font-family="Arbeit Regular, Helvetica, Arial-Unicode, Arial, Sans-serif" fill="#000000">Created by Culai Lai</text><text x="0.0" y="122.5" font-size="5.0" font-weight="bold" font-family="Arbeit Regular, Helvetica, Arial-Unicode, Arial, Sans-serif" fill="#000000">from Noun Project</text></svg>