<svg xmlns="http://www.w3.org/2000/svg" version="1.1" viewBox="-5.0 -10.0 110.0 135.0">
 <path d="m91.02 37.504h-4.4727l-3.8789 6.7188h8.3555c0.92578 0 1.7656-0.375 2.3711-0.97656l0.007813-0.007813-0.007813-0.007812c0.61328-0.60938 0.98828-1.4492 0.98828-2.3711 0-0.92578-0.37891-1.7656-0.98437-2.375-0.60938-0.60547-1.4492-0.98438-2.375-0.98438zm-77.383 11.309 6.3555 26.137c0.46094 1.8828 1.5078 3.4727 2.9219 4.5859 1.4102 1.1094 3.1992 1.75 5.1484 1.75h43.879c1.9492 0 3.7383-0.64062 5.1484-1.75 1.4141-1.1133 2.4648-2.6992 2.9219-4.5859l6.3555-26.137h-72.734zm77.441 0-6.6172 27.215c-0.71094 2.9219-2.3359 5.3867-4.5352 7.1133-2.207 1.7344-4.9844 2.7344-7.9844 2.7344h-43.879c-3 0-5.7734-1.0039-7.9844-2.7344-2.1992-1.7266-3.8242-4.1914-4.5352-7.1133l-6.6172-27.215c-2.0859-0.015625-3.9883-0.84766-5.4062-2.1953-0.050781-0.046876-0.10156-0.089844-0.14844-0.13672-1.4414-1.4414-2.3359-3.4297-2.3359-5.6172 0-2.1914 0.89453-4.1758 2.3359-5.6172s3.4297-2.3359 5.6172-2.3359h1.8242l-3.9648-6.8711c-0.03125-0.050781-0.058594-0.10547-0.085937-0.15625-1.0234-1.8594-1.2227-3.9648-0.70703-5.8711 0.51172-1.9102 1.7305-3.6328 3.5352-4.7305 0.12109-0.085938 0.25391-0.15625 0.38281-0.21484 1.8438-0.98828 3.918-1.1719 5.8008-0.66797 1.8828 0.50391 3.5898 1.7031 4.6914 3.4844 0.09375 0.12891 0.17578 0.26563 0.23828 0.40625l8.4453 14.633h41.699l8.4805-14.691 0.070313-0.12891c1.0938-1.8945 2.8633-3.168 4.8281-3.6914 1.8828-0.50391 3.957-0.31641 5.8008 0.66797 0.15625 0.066406 0.30469 0.15234 0.44531 0.25391 1.7773 1.1055 2.9766 2.8086 3.4805 4.6914 0.50781 1.8828 0.31641 3.9609-0.66797 5.8008-0.054687 0.12109-0.12109 0.24609-0.19922 0.35938l-3.8867 6.7383h1.8242c2.1797 0 4.168 0.89453 5.6055 2.3359l0.007813 0.007813c1.4414 1.4414 2.3359 3.4258 2.3359 5.6055 0 2.1914-0.89453 4.1797-2.3359 5.6172l-0.007813-0.007812c-1.4297 1.4297-3.3945 2.3203-5.5547 2.3398zm-9.8203-11.309h-62.508l3.8828 6.7188h54.746l3.8828-6.7188zm2.6484-4.5898 5.293-9.1641 0.054687-0.089844c0.41406-0.77344 0.48438-1.6523 0.27344-2.4609-0.21094-0.78906-0.69531-1.4961-1.4141-1.9609-0.097656-0.050781-0.19922-0.10547-0.28906-0.16797-0.76172-0.39062-1.6211-0.45703-2.4102-0.24219-0.79687 0.21484-1.5156 0.71094-1.9805 1.4492-0.050782 0.10156-0.10938 0.19922-0.17578 0.29297l-7.1289 12.344zm-70.445 4.5898h-4.4727c-0.92188 0-1.7617 0.37891-2.3711 0.98828-0.61328 0.61328-0.98828 1.4492-0.98828 2.3711s0.37891 1.7617 0.98828 2.3711l0.089843 0.097656c0.59766 0.55078 1.3984 0.89062 2.2812 0.89062h8.3555l-3.8789-6.7188zm10.418-4.5898-7.2383-12.535c-0.45703-0.79297-1.207-1.3281-2.0469-1.5508-0.80859-0.21484-1.6875-0.14062-2.4609 0.26953l-0.089843 0.058594c-0.79688 0.46094-1.3398 1.2109-1.5586 2.0469-0.21484 0.80859-0.14062 1.6875 0.26953 2.4648l0.054688 0.085937 5.293 9.1641h7.7773z"/>
<text x="0.0" y="117.5" font-size="5.0" font-weight="bold" font-family="Arbeit Regular, Helvetica, Arial-Unicode, Arial, Sans-serif" fill="#000000">Created by VERA</text><text x="0.0" y="122.5" font-size="5.0" font-weight="bold" font-family="Arbeit Regular, Helvetica, Arial-Unicode, Arial, Sans-serif" fill="#000000">from Noun Project</text></svg>