<svg xmlns="http://www.w3.org/2000/svg" viewBox="0 0 24 30" fill="none" x="0px" y="0px"><path fill-rule="evenodd" clip-rule="evenodd" d="M5.60957 3.68765C5.70445 3.56904 5.84811 3.5 6 3.5H18C18.1519 3.5 18.2955 3.56904 18.3904 3.68765L22.3904 8.68765C22.5439 8.87953 22.5353 9.15451 22.37 9.33634L12.3782 20.3273C12.3693 20.3375 12.3601 20.3473 12.3505 20.3567C12.3063 20.4003 12.2533 20.4361 12.1931 20.4613C12.1866 20.4639 12.1801 20.4665 12.1735 20.4689C12.1269 20.4862 12.0775 20.4967 12.0271 20.4994C11.9844 20.5017 11.942 20.4985 11.901 20.4902C11.8768 20.4853 11.8529 20.4785 11.8298 20.4701C11.7586 20.4444 11.6967 20.404 11.6463 20.3536C11.638 20.3453 11.63 20.3367 11.6223 20.3278L1.63003 9.33634C1.46474 9.15451 1.45606 8.87953 1.60957 8.68765L5.60957 3.68765ZM13.2507 17.881L20.8697 9.5H16.1078L13.2507 17.881ZM15.0513 9.5L12 18.4505L8.94872 9.5H15.0513ZM3.13028 9.5H7.8922L10.7494 17.881L3.13028 9.5ZM5.90227 4.92255L3.04031 8.5H7.69099L5.90227 4.92255ZM6.80903 4.5L8.5718 8.02553L11.0397 4.5H6.80903ZM12.9604 4.5L15.4282 8.02553L17.191 4.5H12.9604ZM18.0977 4.92256L16.309 8.5H20.9597L18.0977 4.92256ZM14.5397 8.5L12 4.87188L9.46033 8.5H14.5397Z" fill="black"/><text x="0" y="39" fill="#000000" font-size="5px" font-weight="bold" font-family="'Helvetica Neue', Helvetica, Arial-Unicode, Arial, Sans-serif">Created by Henning Gross</text><text x="0" y="44" fill="#000000" font-size="5px" font-weight="bold" font-family="'Helvetica Neue', Helvetica, Arial-Unicode, Arial, Sans-serif">from the Noun Project</text></svg>